<?xml version="1.0" standalone="no"?>
<!DOCTYPE svg PUBLIC "-//W3C//DTD SVG 1.0//EN" "http://www.w3.org/TR/2001/REC-SVG-20010904/DTD/svg10.dtd">
<svg xmlns="http://www.w3.org/2000/svg" xmlns:xlink="http://www.w3.org/1999/xlink" id="body_1" width="893" height="541">

<g transform="matrix(1.0000001 0 0 1 0 0)">
	<path  d="M119.89615 71.32961C 119.89616 84.032166 115.40513 94.874466 106.423065 103.85652C 97.44101 112.838585 86.5987 117.32961 73.89615 117.32961C 61.1936 117.32961 50.351295 112.838585 41.369236 103.85652C 32.387177 94.874466 27.896149 84.032166 27.896149 71.32961C 27.896149 58.627064 32.387177 47.78476 41.369236 38.8027C 50.351295 29.820644 61.1936 25.329615 73.89615 25.329613C 86.5987 25.329615 97.44101 29.820644 106.423065 38.8027C 115.40513 47.78476 119.89616 58.627064 119.89615 71.32961C 119.89616 71.8649 119.88681 72.400024 119.868126 72.93499" stroke="none"  fill="#FF6584" fill-rule="nonzero" />
	<path  d="M0 522.802C 0 512.8609 198.78699 504.802 444.00317 504.802C 689.21936 504.802 888.00635 512.8609 888.00635 522.802C 888.00635 532.7431 689.21936 540.802 444.00317 540.802C 198.78699 540.802 0 532.7431 0 522.802" stroke="none"  fill="#E6E6E6" fill-rule="nonzero" />
	<path  d="M226 184.2194C 226 215.4235 214.9677 242.05786 192.90308 264.12247C 170.83846 286.1871 144.2041 297.21942 113 297.21942C 81.79591 297.21942 55.161552 286.1871 33.09693 264.12247C 11.0323105 242.05786 0 215.4235 0 184.2194C 0 153.01532 11.0323105 126.38097 33.09693 104.31634C 55.161552 82.251724 81.79591 71.219406 113 71.219406C 144.2041 71.219406 170.83846 82.251724 192.90308 104.31634C 214.9677 126.38097 226 153.01532 226 184.2194C 226 185.53436 225.97707 186.8489 225.93117 188.16306" stroke="none"  fill="#F19828" fill-rule="nonzero" />
	<path  d="M123.892 524.581L100.747 524.581L111.298 167.201L123.892 524.581L123.892 524.581" stroke="none"  fill="#3F3D56" fill-rule="nonzero" />
	<path  d="M113.34 234.933L138.187 200.557L113 243.442L110.277 238.677L113.34 234.933L113.34 234.933" stroke="none"  fill="#3F3D56" fill-rule="nonzero" />
	<path  d="M110.617 269.65L85.771 235.274L110.958 278.159L113.681 273.394L110.617 269.65L110.617 269.65" stroke="none"  fill="#3F3D56" fill-rule="nonzero" />
	<path  d="M827.505 524.957L804.361 524.957L814.912 167.577L827.505 524.957L827.505 524.957" stroke="none"  fill="#3F3D56" fill-rule="nonzero" />
	<path  d="M816.954 235.309L841.801 200.933L816.614 243.818L813.891 239.053L816.954 235.309L816.954 235.309" stroke="none"  fill="#3F3D56" fill-rule="nonzero" />
	<path  d="M814.231 270.026L789.385 235.65L814.572 278.535L817.295 273.77L814.231 270.026L814.231 270.026" stroke="none"  fill="#3F3D56" fill-rule="nonzero" />
	<path  d="M669.5592 314.39328C 669.5592 372.52225 649.0075 422.13843 607.9041 463.2418C 566.8007 504.34518 517.1846 524.89685 459.0556 524.89685C 400.92664 524.89685 351.3105 504.34518 310.2071 463.2418C 269.10373 422.13843 248.55203 372.52225 248.55202 314.39328C 248.55203 256.2643 269.10373 206.64815 310.2071 165.54477C 351.3105 124.44139 400.92664 103.889694 459.0556 103.889694C 517.1846 103.889694 566.8007 124.44139 607.9041 165.54477C 649.0075 206.64815 669.5592 256.2643 669.5592 314.39328C 669.5592 316.84283 669.5165 319.2917 669.43097 321.73975" stroke="none"  fill="#3F3D56" fill-rule="nonzero" />
	<path  d="M652.1334 314.39328C 652.1334 367.71024 633.283 413.21912 595.5822 450.9199C 557.8815 488.6207 512.3726 507.47107 459.0556 507.47107C 405.73865 507.47107 360.2298 488.6207 322.529 450.9199C 284.82822 413.21912 265.9778 367.71024 265.9778 314.39328C 265.9778 261.07632 284.82822 215.56746 322.529 177.86667C 360.2298 140.1659 405.73865 121.3155 459.0556 121.31549C 512.3726 121.3155 557.8815 140.1659 595.5822 177.86667C 633.283 215.56746 652.1334 261.07632 652.1334 314.39328C 652.1334 316.64008 652.09424 318.88617 652.01575 321.1316" stroke="none"  fill="#FFFFFF" fill-rule="nonzero" />
	<path  d="M484.14874 315.0903C 484.14874 322.2121 481.63083 328.2909 476.59497 333.32672C 471.55914 338.36255 465.48035 340.88046 458.35858 340.88046C 451.23682 340.88046 445.15802 338.36255 440.1222 333.32672C 435.08636 328.2909 432.56845 322.2121 432.56842 315.0903C 432.56845 307.96857 435.08636 301.88974 440.1222 296.85388C 445.15802 291.81805 451.23682 289.30014 458.35858 289.30014C 465.48035 289.30014 471.55914 291.81805 476.59497 296.85388C 481.63083 301.88974 484.14874 307.96857 484.14874 315.0903C 484.14874 315.39044 484.14352 315.69043 484.13306 315.99036" stroke="none"  fill="#3F3D56" fill-rule="nonzero" />
	<path  d="M452.78232 131.07391L463.9348 131.07391L463.9348 151.98486L452.78232 151.98486z" stroke="none"  fill="#3F3D56" fill-rule="nonzero" />
	<path  d="M452.78232 478.1957L463.9348 478.1957L463.9348 499.10666L452.78232 499.10666z" stroke="none"  fill="#3F3D56" fill-rule="nonzero" />
	<path transform="matrix(7.5497894E-08 0.99999994 -0.99999994 7.5497894E-08 779.48694 -123.40042)" d="M432.91446 484.2338L444.06696 484.2338L444.06696 505.14474L432.91446 505.14474z" stroke="none"  fill="#3F3D56" fill-rule="nonzero" />
	<path transform="matrix(7.5497894E-08 0.99999994 -0.99999994 7.5497894E-08 1126.6088 -470.52222)" d="M780.03625 484.2338L791.1888 484.2338L791.1888 505.14474L780.03625 505.14474z" stroke="none"  fill="#3F3D56" fill-rule="nonzero" />
	<path  d="M450.924 326.286L460.455 304.493L579.88 370.635L450.924 326.286L450.924 326.286" stroke="none"  fill="#3F3D56" fill-rule="nonzero" />
	<path  d="M431.87137 53.00636L486.23984 53.00636L486.23984 115.73922L431.87137 115.73922z" stroke="none"  fill="#3F3D56" fill-rule="nonzero" />
	<path  d="M396.32275 53.006355C 396.32275 43.382355 424.4092 35.580566 459.0556 35.580566C 493.702 35.580566 521.78845 43.382355 521.78845 53.006355C 521.78845 62.630356 493.702 70.432144 459.0556 70.432144C 424.4092 70.432144 396.32275 62.630356 396.32275 53.006355" stroke="none"  fill="#3F3D56" fill-rule="nonzero" />
	<path transform="matrix(1 0 0 1 -153.69305 -179.59898)" d="M730.1985 531.28345L726.7133 536.16266C 726.7133 536.16266 710.6816 554.98254 709.98456 545.9211C 709.28754 536.8596 721.8341 530.58636 721.8341 530.58636L721.8341 530.58636L728.80444 526.4042L730.1985 531.28345z" stroke="none"  fill="#FFB8B8" fill-rule="nonzero" />
	<path transform="matrix(1 0 0 1 -153.69305 -179.59898)" d="M829.4178 547.74524L832.3361 552.9832C 832.3361 552.9832 842.48456 575.5268 833.9966 572.2789C 825.5086 569.03094 825.20825 555.00665 825.20825 555.00665L825.20825 555.00665L824.4114 546.91705L829.4178 547.74524z" stroke="none"  fill="#FFB8B8" fill-rule="nonzero" />
	<path  d="M681.25775 254.04245C 681.25775 259.90338 679.1856 264.906 675.0413 269.05026C 670.89703 273.19458 665.8944 275.26672 660.0335 275.2667C 654.1726 275.26672 649.17004 273.19458 645.0257 269.05026C 640.8815 264.906 638.8093 259.90338 638.80927 254.04245C 638.8093 248.18155 640.8815 243.17896 645.0257 239.03464C 649.17004 234.89035 654.1726 232.8182 660.0335 232.8182C 665.8944 232.8182 670.89703 234.89035 675.0413 239.03464C 679.1856 243.17896 681.25775 248.18155 681.25775 254.04245C 681.25775 254.28943 681.2534 254.53635 681.2448 254.78317" stroke="none"  fill="#2F2E41" fill-rule="nonzero" />
	<path transform="matrix(1 0 0 1 -153.69305 -179.59898)" d="M811.7512 607.957L814.53937 626.0798L814.53937 631.656L830.5711 631.656L830.5711 624.6857C 830.5711 624.6857 831.2681 612.13916 828.48004 608.654C 825.69196 605.1688 811.7512 607.957 811.7512 607.957z" stroke="none"  fill="#FFB8B8" fill-rule="nonzero" />
	<path transform="matrix(1 0 0 1 -153.69305 -179.59898)" d="M783.1729 607.957L785.96106 626.0798L785.96106 631.656L801.9928 631.656L801.9928 624.6857C 801.9928 624.6857 802.6898 612.13916 799.90173 608.654C 797.11365 605.1688 783.1729 607.957 783.1729 607.957z" stroke="none"  fill="#FFB8B8" fill-rule="nonzero" />
	<path transform="matrix(1 0 0 1 -153.69305 -179.59898)" d="M793.9613 462.3837C 793.9613 462.3837 787.79504 465.6337 792.0067 473.02655C 796.2184 480.4194 820.9292 556.90314 820.9292 556.90314L820.9292 556.90314L835.185 552.85626L822.6127 504.48572L815.4139 474.08414L793.9613 462.3837z" stroke="none"  fill="#F19828" fill-rule="nonzero" />
	<path  d="M673.7414 260.02478C 673.74146 264.45184 672.1762 268.23053 669.0458 271.36093C 665.9154 274.49133 662.1367 276.05652 657.70966 276.05652C 653.28265 276.05652 649.5039 274.49133 646.37354 271.36093C 643.24316 268.23053 641.6779 264.45184 641.6779 260.02478C 641.6779 255.59775 643.24316 251.81903 646.37354 248.68863C 649.5039 245.55824 653.28265 243.99304 657.70966 243.99304C 662.1367 243.99304 665.9154 245.55824 669.0458 248.68863C 672.1762 251.81903 673.74146 255.59775 673.7414 260.02478C 673.74146 260.21136 673.73816 260.39786 673.7316 260.5843" stroke="none"  fill="#FFB8B8" fill-rule="nonzero" />
	<path transform="matrix(1 0 0 1 -153.69305 -179.59898)" d="M818.72156 442.0634L816.6305 474.82388L801.9928 464.3684C 801.9928 464.3684 806.872 444.85153 805.47797 443.4574L805.47797 443.4574L818.72156 442.0634z" stroke="none"  fill="#FFB8B8" fill-rule="nonzero" />
	<path transform="matrix(1 0 0 1 -153.69305 -179.59898)" d="M818.72156 472.03574L802.9526 460.35867C 802.9526 460.35867 795.71954 457.39807 793.6284 460.8832C 791.5373 464.36835 781.08185 515.9487 786.6581 525.7072C 786.6581 525.7072 816.63043 531.98047 822.90375 528.49536L822.90375 528.49536L825.6919 510.37253C 825.6919 510.37253 829.17706 499.22003 823.60077 492.2497L823.60077 492.2497L818.72156 472.03574z" stroke="none"  fill="#F19828" fill-rule="nonzero" />
	<path transform="matrix(1 0 0 1 -153.69305 -179.59898)" d="M797.8106 461.5803C 797.8106 461.5803 792.2344 457.3981 787.3551 464.3684C 782.4758 471.3387 723.92523 526.40424 723.92523 526.40424L723.92523 526.40424L733.68365 537.55676L772.0204 505.4933L796.4165 485.9764L797.8106 461.5803z" stroke="none"  fill="#F19828" fill-rule="nonzero" />
	<path transform="matrix(1 0 0 1 -153.69305 -179.59898)" d="M823.25226 528.1468C 823.25226 528.1468 788.7492 521.52496 785.26404 526.40424L785.26404 526.40424L784.567 534.0716C 784.567 534.0716 776.89966 548.7092 781.08185 572.4083C 785.26404 596.1074 782.4759 610.74506 782.4759 610.74506C 782.4759 610.74506 801.2958 608.65393 815.2364 610.74506C 829.177 612.8362 831.2681 610.74506 831.2681 610.74506L831.2681 610.74506L823.25226 528.1468z" stroke="none"  fill="#2F2E41" fill-rule="nonzero" />
	<path transform="matrix(1 0 0 1 -153.69305 -179.59898)" d="M831.96515 628.8679L811.7512 629.56494L818.72156 681.84235C 818.72156 681.84235 813.1453 704.14734 819.4186 705.54144C 823.7794 706.4217 828.2136 706.8884 832.6622 706.9355C 832.6622 706.9355 838.9354 713.20874 845.90576 712.5117C 850.5348 711.92053 855.0203 710.504 859.14935 708.3295C 859.14935 708.3295 860.5434 704.14734 855.6642 702.7533C 850.785 701.35925 837.5414 697.17706 834.7532 682.53937L834.7532 682.53937L831.96515 628.8679z" stroke="none"  fill="#2F2E41" fill-rule="nonzero" />
	<path transform="matrix(1 0 0 1 -153.69305 -179.59898)" d="M803.38684 628.8679L783.1729 629.56494L790.14325 681.84235C 790.14325 681.84235 784.567 704.14734 790.8403 705.54144C 795.20105 706.4217 799.63525 706.8884 804.08386 706.9355C 804.08386 706.9355 810.3571 713.20874 817.32745 712.5117C 821.9564 711.92053 826.44196 710.504 830.57104 708.3295C 830.57104 708.3295 831.9651 704.14734 827.0859 702.7533C 822.20667 701.35925 808.9631 697.177 806.175 682.53937L806.175 682.53937L803.38684 628.8679z" stroke="none"  fill="#2F2E41" fill-rule="nonzero" />
	<path  d="M676.2405 231.7041C 676.2405 234.12933 675.38306 236.19937 673.66815 237.91423C 671.95325 239.62912 669.88324 240.48656 667.458 240.48656C 665.03284 240.48656 662.96277 239.62912 661.24786 237.91423C 659.53296 236.19937 658.67554 234.12933 658.67554 231.7041C 658.67554 229.2789 659.53296 227.20885 661.24786 225.49397C 662.96277 223.7791 665.03284 222.92166 667.458 222.92165C 669.88324 222.92166 671.95325 223.7791 673.66815 225.49397C 675.38306 227.20885 676.2405 229.2789 676.2405 231.7041C 676.2405 231.8063 676.2387 231.90848 676.2351 232.0106" stroke="none"  fill="#2F2E41" fill-rule="nonzero" />
	<path transform="matrix(1 0 0 1 -153.69305 -179.59898)" d="M832.861 406.54593C 832.8608 402.04974 829.46515 398.27972 824.9934 397.81094C 825.2973 397.7794 825.60266 397.76355 825.90826 397.76346C 830.75867 397.76346 834.6907 401.6955 834.6907 406.5459C 834.6907 411.3963 830.75867 415.32834 825.90826 415.32834C 825.60266 415.32825 825.2973 415.3124 824.9934 415.28085C 829.46515 414.81207 832.8608 411.04208 832.861 406.54593z" stroke="none"  fill="#2F2E41" fill-rule="nonzero" />
	<path  d="M642.9271 249.54234C 642.9271 244.69193 649.48047 240.75989 657.5645 240.75989C 665.64856 240.75989 672.2019 244.69193 672.2019 249.54234C 672.2019 254.39276 665.64856 258.3248 657.5645 258.3248C 649.48047 258.3248 642.9271 254.39276 642.9271 249.54234" stroke="none"  fill="#2F2E41" fill-rule="nonzero" />
	<path transform="matrix(1 0 0 1 -153.69305 -179.59898)" d="M1041.8127 221.75021C 1040.578 199.91823 1023.72235 182.18826 1001.98065 179.85193C 980.239 177.51561 960.0012 191.2596 954.1561 212.3308C 953.61487 212.31137 953.07416 212.28963 952.52814 212.28963C 932.7033 212.29324 915.25073 225.35783 909.6615 244.37854C 896.5073 238.59874 881.10956 242.4288 872.19604 253.69775L872.19604 253.69775L1011.5583 253.69775C 1019.77325 253.72098 1027.6437 250.39876 1033.3572 244.49606C 1039.0708 238.59338 1042.135 230.61899 1041.8444 222.40912C 1041.8356 222.18982 1041.825 221.97018 1041.8127 221.75021z" stroke="none"  fill="#E6E6E6" fill-rule="nonzero" />
	<path  d="M783.6139 124.178C 783.61395 127.491714 782.4424 130.32014 780.0992 132.66328C 777.7561 135.00644 774.9277 136.17801 771.6139 136.17801C 768.3002 136.17801 765.47174 135.00644 763.1286 132.66328C 760.78546 130.32014 759.6139 127.491714 759.6139 124.178C 759.6139 120.864296 760.78546 118.035866 763.1286 115.69272C 765.47174 113.34958 768.3002 112.17801 771.6139 112.178C 774.9277 112.17801 777.7561 113.34958 780.0992 115.69272C 782.4424 118.035866 783.61395 120.864296 783.6139 124.178C 783.61395 124.31764 783.6115 124.45724 783.60657 124.596794" stroke="none"  fill="#E6E6E6" fill-rule="nonzero" />
	<path  d="M817.83875 95.88566C 817.83875 98.64482 816.8632 100.999916 814.9122 102.95093C 812.9612 104.901955 810.6061 105.877464 807.8469 105.87746C 805.08777 105.877464 802.7327 104.901955 800.7817 102.95093C 798.8307 100.999916 797.85516 98.64482 797.8551 95.88566C 797.85516 93.126495 798.8307 90.77141 800.7817 88.82039C 802.7327 86.86937 805.08777 85.89386 807.8469 85.89386C 810.6061 85.89386 812.9612 86.86937 814.9122 88.82039C 816.8632 90.77141 817.83875 93.126495 817.83875 95.88566C 817.83875 96.00194 817.83673 96.11817 817.83264 96.23437" stroke="none"  fill="#E6E6E6" fill-rule="nonzero" />
	<path  d="M868.6139 150.178C 868.6139 153.4917 867.4423 156.32013 865.0992 158.66327C 862.75604 161.00642 859.9276 162.17801 856.6139 162.178C 853.3002 162.17801 850.47174 161.00642 848.1286 158.66327C 845.78546 156.32013 844.6139 153.4917 844.6139 150.178C 844.6139 146.86429 845.78546 144.03586 848.1286 141.69272C 850.47174 139.34958 853.3002 138.17801 856.6139 138.178C 859.9276 138.17801 862.75604 139.34958 865.0992 141.69272C 867.4423 144.03586 868.6139 146.86429 868.6139 150.178C 868.6139 150.31763 868.61145 150.45723 868.60657 150.59679" stroke="none"  fill="#E6E6E6" fill-rule="nonzero" />
	<path  d="M777.6139 205.178C 777.61395 208.49171 776.4424 211.32013 774.0992 213.66327C 771.7561 216.00644 768.9277 217.17801 765.6139 217.178C 762.3002 217.17801 759.47174 216.00644 757.1286 213.66327C 754.78546 211.32013 753.6139 208.49171 753.6139 205.178C 753.6139 201.86429 754.78546 199.03586 757.1286 196.69272C 759.47174 194.34958 762.3002 193.17801 765.6139 193.178C 768.9277 193.17801 771.7561 194.34958 774.0992 196.69272C 776.4424 199.03586 777.61395 201.86429 777.6139 205.178C 777.61395 205.31764 777.6115 205.45724 777.60657 205.59679" stroke="none"  fill="#E6E6E6" fill-rule="nonzero" />
	<path  d="M868.6139 274.178C 868.6139 277.4917 867.4423 280.32013 865.0992 282.6633C 862.75604 285.00644 859.9276 286.178 856.6139 286.178C 853.3002 286.178 850.47174 285.00644 848.1286 282.6633C 845.78546 280.32013 844.6139 277.4917 844.6139 274.178C 844.6139 270.86432 845.78546 268.0359 848.1286 265.69272C 850.47174 263.34958 853.3002 262.178 856.6139 262.178C 859.9276 262.178 862.75604 263.34958 865.0992 265.69272C 867.4423 268.0359 868.6139 270.86432 868.6139 274.178C 868.6139 274.31766 868.61145 274.45728 868.60657 274.5968" stroke="none"  fill="#E6E6E6" fill-rule="nonzero" />
	<path transform="matrix(1 0 0 1 -153.69305 -179.59898)" d="M991.28735 685.1653C 991.2915 685.0352 991.30695 684.9081 991.30695 684.777C 991.313 680.69073 989.2363 676.8832 985.79767 674.6758C 982.359 672.4684 978.03253 672.16547 974.3199 673.87225C 970.79596 669.80536 964.99097 668.5904 960.13184 670.9029C 955.27277 673.21533 952.55457 678.4865 953.4883 683.78613C 953.4273 683.7852 953.36816 683.777 953.30695 683.777C 948.0599 683.7687 943.4159 687.1705 941.84125 692.1757C 940.2666 697.181 942.12646 702.6289 946.4332 705.6263C 950.7399 708.62366 956.4946 708.47534 960.64124 705.2602C 962.5792 709.03577 966.36816 711.5061 970.6047 711.75616C 974.8412 712.0062 978.8944 709.9988 981.263 706.47736C 985.16797 709.3183 990.3961 709.53937 994.527 707.0382C 998.65784 704.537 1000.8851 699.8018 1000.17755 695.0249C 999.47 690.248 995.9658 686.3617 991.28735 685.1653z" stroke="none"  fill="#E6E6E6" fill-rule="nonzero" />
	<path  d="M872.6139 226.178C 872.6139 227.55872 872.12573 228.73723 871.1494 229.71353C 870.1731 230.68985 868.9946 231.17801 867.6139 231.178C 866.2332 231.17801 865.0547 230.68985 864.07837 229.71353C 863.10205 228.73723 862.6139 227.55872 862.6139 226.178C 862.6139 224.7973 863.10205 223.61879 864.07837 222.64246C 865.0547 221.66615 866.2332 221.178 867.6139 221.178C 868.9946 221.178 870.1731 221.66615 871.1494 222.64246C 872.12573 223.61879 872.6139 224.7973 872.6139 226.178C 872.6139 226.23619 872.6129 226.29436 872.61084 226.3525" stroke="none"  fill="#E6E6E6" fill-rule="nonzero" />
	<path  d="M840.6139 106.178C 840.61395 107.558716 840.1258 108.73723 839.1494 109.71353C 838.17316 110.68985 836.9946 111.178 835.6139 111.178C 834.2332 111.178 833.0547 110.68985 832.07837 109.71353C 831.10205 108.73723 830.6139 107.558716 830.6139 106.178C 830.6139 104.797295 831.10205 103.61878 832.07837 102.64247C 833.0547 101.66616 834.2332 101.17801 835.6139 101.178C 836.9946 101.17801 838.17316 101.66616 839.1494 102.64247C 840.1258 103.61878 840.61395 104.797295 840.6139 106.178C 840.61395 106.23619 840.6129 106.29436 840.61084 106.3525" stroke="none"  fill="#E6E6E6" fill-rule="nonzero" />
	<path  d="M823.6139 230.178C 823.6139 231.5587 823.12573 232.73721 822.1494 233.71353C 821.1731 234.68985 819.9946 235.17801 818.6139 235.178C 817.2333 235.17801 816.05475 234.68985 815.07837 233.71353C 814.1021 232.73721 813.61395 231.5587 813.6139 230.178C 813.61395 228.79729 814.1021 227.61877 815.07837 226.64246C 816.05475 225.66615 817.2333 225.17801 818.6139 225.178C 819.9946 225.17801 821.1731 225.66615 822.1494 226.64246C 823.12573 227.61877 823.6139 228.79729 823.6139 230.178C 823.6139 230.23619 823.6129 230.29436 823.61084 230.3525" stroke="none"  fill="#E6E6E6" fill-rule="nonzero" />
	<path  d="M827.6139 225.178C 827.6139 226.55872 827.12573 227.73721 826.1494 228.71353C 825.1731 229.68985 823.9946 230.178 822.6139 230.178C 821.2332 230.178 820.0547 229.68985 819.07837 228.71353C 818.10205 227.73721 817.6139 226.55872 817.6139 225.178C 817.6139 223.7973 818.10205 222.61877 819.07837 221.64246C 820.0547 220.66617 821.2332 220.17801 822.6139 220.178C 823.9946 220.17801 825.1731 220.66617 826.1494 221.64246C 827.12573 222.61877 827.6139 223.7973 827.6139 225.178C 827.6139 225.23618 827.6129 225.29434 827.61084 225.3525" stroke="none"  fill="#E6E6E6" fill-rule="nonzero" />
	<path  d="M830.6139 220.178C 830.6139 221.55872 830.12573 222.73723 829.1494 223.71353C 828.1731 224.68985 826.9946 225.17801 825.6139 225.178C 824.2332 225.17801 823.0547 224.68985 822.07837 223.71353C 821.10205 222.73723 820.6139 221.55872 820.6139 220.178C 820.6139 218.7973 821.10205 217.61879 822.07837 216.64246C 823.0547 215.66615 824.2332 215.178 825.6139 215.178C 826.9946 215.178 828.1731 215.66615 829.1494 216.64246C 830.12573 217.61879 830.6139 218.7973 830.6139 220.178C 830.6139 220.23619 830.6129 220.29436 830.61084 220.3525" stroke="none"  fill="#E6E6E6" fill-rule="nonzero" />
	<path  d="M818.6139 262.178C 818.6139 263.55872 818.12573 264.73724 817.1494 265.71353C 816.1731 266.68988 814.9946 267.17804 813.6139 267.178C 812.2332 267.17804 811.0547 266.68988 810.07837 265.71353C 809.10205 264.73724 808.6139 263.55872 808.6139 262.178C 808.6139 260.7973 809.10205 259.6188 810.07837 258.6425C 811.0547 257.66617 812.2332 257.178 813.6139 257.178C 814.9946 257.178 816.1731 257.66617 817.1494 258.6425C 818.12573 259.6188 818.6139 260.7973 818.6139 262.178C 818.6139 262.2362 818.6129 262.29437 818.61084 262.3525" stroke="none"  fill="#E6E6E6" fill-rule="nonzero" />
	<path  d="M892.6139 318.178C 892.6139 319.55872 892.12573 320.73724 891.1494 321.71353C 890.1731 322.68985 888.9946 323.178 887.6139 323.178C 886.2333 323.178 885.05475 322.68985 884.07837 321.71353C 883.1021 320.73724 882.61395 319.55872 882.6139 318.178C 882.61395 316.7973 883.1021 315.61877 884.07837 314.6425C 885.05475 313.66617 886.2333 313.178 887.6139 313.178C 888.9946 313.178 890.1731 313.66617 891.1494 314.6425C 892.12573 315.61877 892.6139 316.7973 892.6139 318.178C 892.6139 318.2362 892.6129 318.29437 892.61084 318.3525" stroke="none"  fill="#E6E6E6" fill-rule="nonzero" />
	<path  d="M785.6139 321.178C 785.6139 322.55872 785.12573 323.73724 784.1494 324.71353C 783.1731 325.68985 781.9946 326.178 780.6139 326.178C 779.2332 326.178 778.0547 325.68985 777.07837 324.71353C 776.10205 323.73724 775.6139 322.55872 775.6139 321.178C 775.6139 319.7973 776.10205 318.61877 777.07837 317.6425C 778.0547 316.66617 779.2332 316.178 780.6139 316.178C 781.9946 316.178 783.1731 316.66617 784.1494 317.6425C 785.12573 318.61877 785.6139 319.7973 785.6139 321.178C 785.6139 321.2362 785.6129 321.29437 785.61084 321.3525" stroke="none"  fill="#E6E6E6" fill-rule="nonzero" />
	<path  d="M791.6139 167.178C 791.6139 168.5587 791.12573 169.73721 790.1494 170.71353C 789.1731 171.68985 787.9946 172.178 786.6139 172.178C 785.2332 172.178 784.0547 171.68985 783.07837 170.71353C 782.10205 169.73721 781.6139 168.5587 781.6139 167.178C 781.6139 165.79729 782.10205 164.61877 783.07837 163.64246C 784.0547 162.66615 785.2332 162.17801 786.6139 162.178C 787.9946 162.17801 789.1731 162.66615 790.1494 163.64246C 791.12573 164.61877 791.6139 165.79729 791.6139 167.178C 791.6139 167.23618 791.6129 167.29434 791.61084 167.3525" stroke="none"  fill="#E6E6E6" fill-rule="nonzero" />
	<path  d="M814.6139 257.178C 814.6139 258.55875 814.12573 259.73724 813.1494 260.71353C 812.1731 261.68985 810.9946 262.178 809.6139 262.178C 808.2333 262.178 807.05475 261.68985 806.07837 260.71353C 805.1021 259.73724 804.61395 258.55875 804.6139 257.178C 804.61395 255.7973 805.1021 254.61877 806.07837 253.64247C 807.05475 252.66617 808.2333 252.17802 809.6139 252.17801C 810.9946 252.17802 812.1731 252.66617 813.1494 253.64247C 814.12573 254.61877 814.6139 255.7973 814.6139 257.178C 814.6139 257.2362 814.6129 257.29437 814.61084 257.3525" stroke="none"  fill="#E6E6E6" fill-rule="nonzero" />
	<path  d="M809.6139 249.178C 809.6139 250.55872 809.12573 251.73721 808.1494 252.71353C 807.1731 253.68985 805.9946 254.178 804.6139 254.178C 803.2332 254.178 802.0547 253.68985 801.07837 252.71353C 800.10205 251.73721 799.6139 250.55872 799.6139 249.178C 799.6139 247.7973 800.10205 246.61877 801.07837 245.64246C 802.0547 244.66617 803.2332 244.17801 804.6139 244.178C 805.9946 244.17801 807.1731 244.66617 808.1494 245.64246C 809.12573 246.61877 809.6139 247.7973 809.6139 249.178C 809.6139 249.23618 809.6129 249.29434 809.61084 249.3525" stroke="none"  fill="#E6E6E6" fill-rule="nonzero" />
</g>
</svg>
